<?xml version="1.0" encoding="UTF-8"?>
<svg width="34px" height="34px" viewBox="0 0 34 34" version="1.1" xmlns="http://www.w3.org/2000/svg" xmlns:xlink="http://www.w3.org/1999/xlink">
    <!-- Generator: Sketch 43.2 (39069) - http://www.bohemiancoding.com/sketch -->
    <title>linear-cli</title>
    <desc>Created with Sketch.</desc>
    <defs></defs>
    <g id="Page-1" stroke="none" stroke-width="1" fill="none" fill-rule="evenodd">
        <g id="linear-cli" transform="translate(1.000000, 1.000000)">
            <circle id="Oval" stroke-opacity="0.85" stroke="#000000" stroke-width="0.5" cx="16" cy="16" r="16"></circle>
            <g id="Group" transform="translate(6.000000, 8.000000)" fill-rule="nonzero">
                <path d="M18.5,16 L1.5,16 C0.673,16 0,15.327 0,14.5 L0,1.5 C0,0.673 0.673,0 1.5,0 L18.5,0 C19.327,0 20,0.673 20,1.5 L20,14.5 C20,15.327 19.327,16 18.5,16 Z M1.5,1 C1.224,1 1,1.224 1,1.5 L1,14.5 C1,14.776 1.224,15 1.5,15 L18.5,15 C18.776,15 19,14.776 19,14.5 L19,1.5 C19,1.224 18.776,1 18.5,1 L1.5,1 Z" id="Shape" fill="#4A4A4A"></path>
                <path d="M3.5,8 C3.338,8 3.18,7.922 3.083,7.777 C2.93,7.547 2.992,7.237 3.222,7.084 L5.598,5.5 L3.222,3.916 C2.992,3.763 2.93,3.452 3.083,3.223 C3.236,2.994 3.547,2.931 3.776,3.084 L6.776,5.084 C6.915,5.177 6.999,5.333 6.999,5.5 C6.999,5.667 6.915,5.823 6.776,5.916 L3.776,7.916 C3.691,7.973 3.594,8 3.499,8 L3.5,8 Z" id="Shape" fill="#4A4A4A"></path>
                <path d="M11.5,8 L8.5,8 C8.224,8 8,7.776 8,7.5 C8,7.224 8.224,7 8.5,7 L11.5,7 C11.776,7 12,7.224 12,7.5 C12,7.776 11.776,8 11.5,8 Z" id="Shape" fill-opacity="0.5" fill="#00FFDE"></path>
            </g>
        </g>
    </g>
</svg>