<?xml version="1.0" encoding="UTF-8"?>
<svg width="34px" height="34px" viewBox="0 0 34 34" version="1.1" xmlns="http://www.w3.org/2000/svg" xmlns:xlink="http://www.w3.org/1999/xlink">
    <!-- Generator: Sketch 43.2 (39069) - http://www.bohemiancoding.com/sketch -->
    <title>linear-laptop-phone</title>
    <desc>Created with Sketch.</desc>
    <defs></defs>
    <g id="Page-1" stroke="none" stroke-width="1" fill="none" fill-rule="evenodd">
        <g id="linear-laptop-phone" transform="translate(1.000000, 1.000000)">
            <circle id="Oval" stroke-opacity="0.85" stroke="#000000" stroke-width="0.5" cx="16" cy="16" r="16"></circle>
            <g id="Group" transform="translate(6.000000, 8.500000)" fill-rule="nonzero">
                <path d="M11.5,11 L3.5,11 C2.673,11 2,10.327 2,9.5 L2,1.5 C2,0.673 2.673,0 3.5,0 L16.5,0 C17.327,0 18,0.673 18,1.5 L18,2.5 C18,2.776 17.776,3 17.5,3 C17.224,3 17,2.776 17,2.5 L17,1.5 C17,1.224 16.776,1 16.5,1 L3.5,1 C3.224,1 3,1.224 3,1.5 L3,9.5 C3,9.776 3.224,10 3.5,10 L11.5,10 C11.776,10 12,10.224 12,10.5 C12,10.776 11.776,11 11.5,11 Z" id="Shape" fill="#4A4A4A"></path>
                <path d="M11.5,15 L1.5,15 C0.673,15 0,14.327 0,13.5 L0,12.5 C0,12.224 0.224,12 0.5,12 L11.5,12 C11.776,12 12,12.224 12,12.5 C12,12.776 11.776,13 11.5,13 L1,13 L1,13.5 C1,13.776 1.224,14 1.5,14 L11.5,14 C11.776,14 12,14.224 12,14.5 C12,14.776 11.776,15 11.5,15 Z" id="Shape" fill="#4A4A4A"></path>
                <path d="M18.5,15 L14.5,15 C13.673,15 13,14.327 13,13.5 L13,5.5 C13,4.673 13.673,4 14.5,4 L18.5,4 C19.327,4 20,4.673 20,5.5 L20,13.5 C20,14.327 19.327,15 18.5,15 Z M14.5,5 C14.224,5 14,5.224 14,5.5 L14,13.5 C14,13.776 14.224,14 14.5,14 L18.5,14 C18.776,14 19,13.776 19,13.5 L19,5.5 C19,5.224 18.776,5 18.5,5 L14.5,5 Z" id="Shape" fill="#4A4A4A"></path>
                <path d="M16.5,13 C16.368,13 16.24,12.947 16.147,12.853 C16.054,12.759 16,12.631 16,12.5 C16,12.369 16.053,12.239 16.147,12.147 C16.24,12.054 16.369,12 16.5,12 C16.631,12 16.761,12.053 16.853,12.147 C16.946,12.24 17,12.369 17,12.5 C17,12.631 16.947,12.761 16.853,12.853 C16.76,12.946 16.631,13 16.5,13 Z" id="Shape" fill="#00FFDE"></path>
            </g>
        </g>
    </g>
</svg>